<svg width="161" height="89" fill="none" xmlns="http://www.w3.org/2000/svg"><path d="M22.5 5.982c-.297 0-.583-.045-.853-.13V9.92h1.706V5.853c-.27.084-.556.129-.853.129z" fill="#135693"/><path d="M22.5 6.096a2.99 2.99 0 100-5.98 2.99 2.99 0 000 5.98z" fill="#6BC1DD"/><path opacity=".15" d="M22.027 3.106A2.99 2.99 0 0123.759.393a2.99 2.99 0 100 5.426 2.99 2.99 0 01-1.732-2.713z" fill="#440075"/><path d="M41.562 14.588h-1.764v16.269h1.764c.967 0 1.758-.791 1.758-1.758V16.346c0-.967-.791-1.758-1.758-1.758zm-36.361 0h-1.88c-.966 0-1.757.79-1.757 1.757V29.1c0 .966.79 1.757 1.757 1.757h1.88V14.588z" fill="#9EA7AF"/><path d="M6.4 52.142H3.984c-.824 0-1.59-.251-2.226-.68v5.724c0 .644.527 1.172 1.172 1.172H6.4v-6.216zm34.616-.001H38.6v6.216h3.47c.645 0 1.172-.527 1.172-1.172v-5.724a3.967 3.967 0 01-2.226.68z" fill="#C5CCD3"/><path opacity=".15" d="M4.219 57.186V52.14h-.235a3.96 3.96 0 01-2.226-.68v5.725c0 .644.527 1.172 1.172 1.172h2.46a1.175 1.175 0 01-1.171-1.172z" fill="#440075"/><path d="M6.4 43.182H3.984A3.984 3.984 0 000 47.167v1.172c0 2.2 1.784 3.984 3.984 3.984H6.4v-9.14zm34.616 0H38.6v9.14h2.416c2.2 0 3.984-1.784 3.984-3.984v-1.172c0-2.2-1.784-3.984-3.984-3.984z" fill="#E6E9ED"/><path opacity=".15" d="M2.813 48.338v-1.172c0-2.2 1.783-3.984 3.984-3.984H3.984A3.984 3.984 0 000 47.166v1.172c0 2.2 1.784 3.984 3.984 3.984h2.813a3.984 3.984 0 01-3.984-3.984z" fill="#440075"/><path d="M26.39 35.385h-7.78v2.907h7.78v-2.907z" fill="#9EA7AF"/><path opacity=".15" d="M21.445 35.385h-2.834v2.907h2.834v-2.907z" fill="#440075"/><path d="M31.651 41.066v-1.891c0-.556-.455-1.01-1.01-1.01H14.017c-.556 0-1.01.454-1.01 1.01v1.891H31.65z" fill="#C5CCD3"/><path opacity=".15" d="M16.512 41.066v-1.891c0-.556.455-1.01 1.011-1.01h-3.505c-.556 0-1.01.454-1.01 1.01v1.891h3.504z" fill="#440075"/><path d="M36.956 40.868H8.044c-.967 0-1.758.79-1.758 1.757v15.733h32.427V42.625c0-.966-.79-1.757-1.757-1.757z" fill="#9EA7AF"/><path opacity=".15" d="M11.4 40.868H8.044c-.967 0-1.758.79-1.758 1.757v15.733h3.357V42.625c0-.966.79-1.757 1.757-1.757z" fill="#440075"/><path d="M39.912 33.762c0 .966-.79 1.757-1.758 1.757H6.845c-.967 0-1.758-.79-1.758-1.757V11.563c0-.966.791-1.757 1.758-1.757h31.31c.966 0 1.757.79 1.757 1.758v22.198z" fill="#C5CCD3"/><path opacity=".15" d="M8.437 33.762V11.563c0-.966.791-1.757 1.758-1.757h-3.35c-.967 0-1.758.79-1.758 1.758v22.198c0 .966.791 1.757 1.758 1.757h3.35a1.763 1.763 0 01-1.758-1.757z" fill="#440075"/><path d="M35.753 22.695a6.071 6.071 0 01-6.072 6.072H15.32a6.071 6.071 0 110-12.143h14.36a6.071 6.071 0 016.072 6.071z" fill="#135693"/><path opacity=".15" d="M12.656 22.695a6.071 6.071 0 016.072-6.07h-3.41a6.071 6.071 0 100 12.142h3.41a6.071 6.071 0 01-6.072-6.072z" fill="#440075"/><path d="M14.712 25.068a2.365 2.365 0 002.361-2.37 2.365 2.365 0 00-2.36-2.37 2.366 2.366 0 00-2.362 2.37 2.365 2.365 0 002.361 2.37zm15.621-.001a2.366 2.366 0 002.361-2.37 2.366 2.366 0 00-2.36-2.37 2.365 2.365 0 00-2.362 2.37 2.365 2.365 0 002.361 2.37z" fill="#6BC1DD"/><path d="M32.974 58.357V48.14c0-.645-.528-1.172-1.172-1.172H13.198c-.644 0-1.171.527-1.171 1.172v10.216h20.947z" fill="#135693"/><path d="M24.61 58.357v-3.295a.353.353 0 00-.352-.352h-3.516a.353.353 0 00-.351.352v3.295h4.218z" fill="#FFC502"/><path d="M17.578 50.637h-2.695a.853.853 0 110-1.707h2.695a.853.853 0 110 1.707zm-1.172 2.081h-1.523a.853.853 0 110-1.706h1.523a.853.853 0 110 1.706zm1.172 2.084h-2.695a.853.853 0 110-1.706h2.695a.853.853 0 110 1.706zm-1.523 2.082h-1.172a.853.853 0 110-1.706h1.172a.853.853 0 110 1.706z" fill="#C5CCD3"/><path d="M29.73 56.028h-2.08a.894.894 0 110-1.787h2.08a.894.894 0 110 1.787z" fill="#E6E9ED"/><path d="M28.69 52.93a1.877 1.877 0 100-3.753 1.877 1.877 0 000 3.754z" fill="#5DC647"/><path d="M24.662 52.037c0 .198-.163.36-.36.36h-3.603a.361.361 0 01-.36-.36v-1.964c0-.198.162-.36.36-.36h3.602c.198 0 .36.162.36.36v1.964z" fill="#6BC1DD"/><path d="M9.99 83.19l-1.138-3.165H4.495L3.38 83.189H1.416L5.68 71.748h2.026L11.97 83.19H9.99zm-1.63-4.77l-1.067-3.103a23.515 23.515 0 01-.608-1.964c-.14.64-.346 1.338-.616 2.097L5.04 78.42h3.32zm9.292-4.007c.368 0 .672.026.912.078l-.18 1.707a3.46 3.46 0 00-.81-.094c-.733 0-1.328.24-1.785.718-.452.478-.678 1.099-.678 1.862v4.505h-1.832v-8.62h1.434l.242 1.52h.093a3.428 3.428 0 011.115-1.224 2.677 2.677 0 011.489-.452zm5.728 7.451c.447 0 .894-.07 1.341-.21v1.38a3.571 3.571 0 01-.787.218 5.115 5.115 0 01-.99.093c-1.736 0-2.603-.914-2.603-2.743v-4.646h-1.177v-.81l1.262-.67.624-1.824h1.13v1.917h2.455v1.387H22.18v4.615c0 .441.11.769.327.982.224.207.515.311.873.311zm4.903 1.325h-1.832v-8.62h1.832v8.62zm-1.94-10.904c0-.327.088-.58.264-.756.182-.176.44-.265.772-.265.322 0 .571.089.748.265.182.177.273.429.273.756 0 .312-.091.559-.273.74-.177.177-.426.266-.748.266-.333 0-.59-.089-.772-.265-.176-.182-.265-.429-.265-.74zm8.893 3.671H33.13v7.233h-1.84v-7.233h-1.418V75.1l1.419-.561v-.561c0-1.019.239-1.772.717-2.26.478-.494 1.208-.741 2.19-.741.644 0 1.278.106 1.902.32l-.484 1.387a4.225 4.225 0 00-1.293-.219c-.416 0-.72.13-.912.39-.187.255-.281.64-.281 1.154v.561h2.105v1.387zm3.297 7.233H36.7v-8.62h1.831v8.62zm-1.941-10.904c0-.327.088-.58.265-.756.182-.176.439-.265.771-.265.322 0 .572.089.749.265.181.177.272.429.272.756 0 .312-.09.559-.272.74-.177.177-.427.266-.749.266-.332 0-.59-.089-.771-.265-.177-.182-.265-.429-.265-.74zm8.051 11.06c-1.304 0-2.297-.379-2.977-1.138-.676-.763-1.013-1.857-1.013-3.281 0-1.45.353-2.564 1.06-3.344.711-.78 1.738-1.169 3.078-1.169.91 0 1.728.169 2.456.507l-.554 1.473c-.774-.302-1.413-.452-1.917-.452-1.492 0-2.237.99-2.237 2.97 0 .966.184 1.693.553 2.182.374.483.92.725 1.637.725a4.69 4.69 0 002.315-.608v1.598a3.61 3.61 0 01-1.052.413 6.231 6.231 0 01-1.349.124zm6.259-.156H49.07v-8.62h1.832v8.62zm-1.94-10.904c0-.327.088-.58.264-.756.182-.176.44-.265.772-.265.322 0 .572.089.748.265.182.177.273.429.273.756 0 .312-.091.559-.273.74-.177.177-.426.266-.748.266-.333 0-.59-.089-.772-.265-.176-.182-.265-.429-.265-.74zm9.96 10.904l-.366-1.2h-.062c-.416.525-.834.883-1.255 1.076-.421.187-.961.28-1.621.28-.847 0-1.51-.228-1.988-.686-.473-.457-.71-1.104-.71-1.94 0-.889.33-1.56.99-2.011.66-.452 1.666-.7 3.017-.74l1.489-.047v-.46c0-.551-.13-.962-.39-1.232-.255-.275-.652-.413-1.193-.413-.441 0-.865.065-1.27.195a9.58 9.58 0 00-1.17.46l-.592-1.31a6.29 6.29 0 011.536-.553 6.932 6.932 0 011.574-.195c1.097 0 1.923.24 2.479.717.561.478.842 1.23.842 2.253v5.806h-1.31zm-2.728-1.247c.665 0 1.198-.184 1.598-.553.405-.374.608-.896.608-1.567v-.748l-1.107.047c-.862.031-1.491.177-1.886.436-.39.255-.584.647-.584 1.177 0 .385.114.684.343.897.228.207.571.311 1.028.311zm8.426 1.248h-1.832V71.06h1.832v12.13zm6.968 0V71.793h1.863V83.19h-1.863zm12.268 0h-1.84v-5.3c0-.666-.134-1.162-.404-1.49-.265-.327-.689-.49-1.27-.49-.775 0-1.342.228-1.7.686-.359.457-.538 1.223-.538 2.299v4.294h-1.832v-8.62h1.435l.257 1.13h.093a2.55 2.55 0 011.107-.95 3.71 3.71 0 011.59-.336c2.068 0 3.102 1.052 3.102 3.157v5.62zm5.76-1.326c.447 0 .894-.07 1.34-.21v1.38a3.573 3.573 0 01-.786.218 5.116 5.116 0 01-.99.093c-1.736 0-2.604-.914-2.604-2.743v-4.646H85.4v-.81l1.262-.67.624-1.824h1.13v1.917h2.455v1.387h-2.455v4.615c0 .441.11.769.327.982.224.207.515.311.873.311zm6.836 1.481c-1.34 0-2.39-.39-3.149-1.169-.754-.784-1.13-1.863-1.13-3.234 0-1.409.35-2.515 1.052-3.32.702-.806 1.665-1.209 2.892-1.209 1.138 0 2.037.346 2.697 1.037.66.69.99 1.642.99 2.852v.99h-5.745c.026.837.252 1.481.678 1.933.426.447 1.026.67 1.8.67.51 0 .983-.046 1.42-.14.44-.098.914-.26 1.418-.483v1.489a5.622 5.622 0 01-1.356.452 8.31 8.31 0 01-1.567.132zm-.335-7.544c-.582 0-1.05.184-1.403.553-.348.369-.556.907-.624 1.613h3.913c-.01-.712-.182-1.25-.514-1.613-.333-.37-.79-.553-1.372-.553zm7.599 7.388h-1.832V71.063h1.832V83.19zm4.458 0h-1.831V71.063h1.831V83.19zm4.459 0h-1.832v-8.62h1.832v8.62zm-1.941-10.904c0-.327.088-.58.265-.756.182-.176.439-.265.772-.265.322 0 .571.089.748.265.182.177.273.429.273.756 0 .312-.091.559-.273.74-.177.177-.426.266-.748.266-.333 0-.59-.089-.772-.265-.177-.182-.265-.429-.265-.74zm11.847 2.284v1.005l-1.473.273a2.633 2.633 0 01.468 1.512c0 .889-.307 1.588-.92 2.097-.613.51-1.457.764-2.533.764a4.11 4.11 0 01-.748-.063c-.395.245-.593.53-.593.858 0 .197.091.345.273.444.187.099.528.148 1.021.148h1.505c.95 0 1.673.203 2.166.608.494.406.741.99.741 1.754 0 .977-.403 1.73-1.208 2.26-.806.53-1.97.795-3.492.795-1.174 0-2.071-.208-2.689-.623-.619-.416-.928-1.008-.928-1.777 0-.53.167-.977.499-1.341.338-.359.808-.608 1.411-.748a1.41 1.41 0 01-.608-.5 1.301 1.301 0 01-.234-.732c0-.322.091-.595.273-.818.182-.224.452-.444.811-.663a2.433 2.433 0 01-1.092-.935c-.275-.436-.413-.946-.413-1.528 0-.935.294-1.66.881-2.174.592-.515 1.434-.772 2.525-.772.245 0 .499.018.764.055.27.03.473.065.608.101h2.985zm-6.773 9.961c0 .395.177.699.53.912.359.213.86.32 1.504.32.998 0 1.741-.143 2.23-.43.488-.285.732-.664.732-1.137 0-.374-.135-.642-.405-.803-.265-.156-.761-.234-1.489-.234h-1.387c-.525 0-.943.122-1.255.367-.307.249-.46.584-.46 1.005zm.787-7.17c0 .54.138.955.413 1.246.281.291.681.437 1.201.437 1.06 0 1.59-.567 1.59-1.7 0-.56-.133-.992-.398-1.293-.26-.307-.657-.46-1.192-.46-.53 0-.933.15-1.208.452-.271.302-.406.74-.406 1.317zm11.357 5.985c-1.341 0-2.391-.39-3.149-1.169-.754-.784-1.13-1.863-1.13-3.234 0-1.409.35-2.515 1.052-3.32.701-.806 1.665-1.209 2.891-1.209 1.138 0 2.037.346 2.697 1.037.66.69.99 1.642.99 2.852v.99h-5.744c.026.837.252 1.481.678 1.933.426.447 1.026.67 1.8.67.51 0 .982-.046 1.419-.14a7.63 7.63 0 001.418-.483v1.489a5.6 5.6 0 01-1.356.452 8.303 8.303 0 01-1.566.132zm-.336-7.544c-.581 0-1.049.184-1.402.553-.349.369-.556.907-.624 1.613h3.913c-.011-.712-.182-1.25-.515-1.613-.332-.37-.79-.553-1.372-.553zm13.352 7.388h-1.839v-5.3c0-.665-.135-1.161-.406-1.488-.265-.328-.688-.491-1.27-.491-.774 0-1.341.228-1.699.686-.359.457-.538 1.223-.538 2.299v4.294h-1.832v-8.62h1.434l.258 1.13h.093a2.55 2.55 0 011.107-.95 3.71 3.71 0 011.59-.336c2.068 0 3.102 1.052 3.102 3.157v5.62zm6.025.156c-1.304 0-2.297-.379-2.977-1.138-.676-.763-1.014-1.857-1.014-3.281 0-1.45.354-2.564 1.06-3.344.712-.78 1.739-1.169 3.079-1.169.91 0 1.728.169 2.455.507l-.553 1.473c-.774-.302-1.413-.452-1.917-.452-1.492 0-2.237.99-2.237 2.97 0 .966.184 1.693.553 2.182.374.483.92.725 1.637.725a4.69 4.69 0 002.315-.608v1.598c-.328.192-.678.33-1.053.413a6.222 6.222 0 01-1.348.124zm8.192 0c-1.341 0-2.39-.39-3.149-1.169-.753-.784-1.13-1.863-1.13-3.234 0-1.409.351-2.515 1.052-3.32.702-.806 1.665-1.209 2.892-1.209 1.138 0 2.037.346 2.697 1.037.659.69.989 1.642.989 2.852v.99h-5.744c.026.837.252 1.481.678 1.933.426.447 1.026.67 1.801.67.509 0 .982-.046 1.418-.14.442-.098.915-.26 1.419-.483v1.489a5.628 5.628 0 01-1.356.452c-.458.088-.98.132-1.567.132zm-.335-7.544c-.582 0-1.05.184-1.403.553-.348.369-.556.907-.624 1.613h3.913c-.01-.712-.182-1.25-.514-1.613-.333-.37-.79-.553-1.372-.553z" fill="#3A68B8"/></svg>